<!DOCTYPE svg PUBLIC "-//W3C//DTD SVG 1.1//EN" "http://www.w3.org/Graphics/SVG/1.1/DTD/svg11.dtd">
<!-- Uploaded to: SVG Repo, www.svgrepo.com, Transformed by: SVG Repo Mixer Tools -->
<svg fill="#ffffff" height="256px" width="256px" version="1.1" id="Icons" xmlns="http://www.w3.org/2000/svg" xmlns:xlink="http://www.w3.org/1999/xlink" viewBox="-9.92 -9.92 51.84 51.84" xml:space="preserve" stroke="#ffffff" stroke-width="1.056">
<g id="SVGRepo_bgCarrier" stroke-width="0" transform="translate(2.4000000000000004,2.4000000000000004), scale(0.85)">
<path transform="translate(-9.92, -9.92), scale(3.24)" fill="#000000" d="M9.166.33a2.25 2.25 0 00-2.332 0l-5.25 3.182A2.25 2.25 0 00.5 5.436v5.128a2.25 2.25 0 001.084 1.924l5.25 3.182a2.25 2.25 0 002.332 0l5.25-3.182a2.25 2.25 0 001.084-1.924V5.436a2.25 2.25 0 00-1.084-1.924L9.166.33z" strokewidth="0"/>
</g>
<g id="SVGRepo_tracerCarrier" stroke-linecap="round" stroke-linejoin="round" stroke="#CCCCCC" stroke-width="0.32"/>
<g id="SVGRepo_iconCarrier"> <path d="M26.2,8.5c-2.2-3.2-5.6-5.2-9.3-5.5c-0.3,0-0.6,0-0.9,0c-3.7,0-7.2,1.6-9.7,4.3c-2.5,2.7-3.6,6.4-3.2,10.1 c0.7,6,5.5,10.8,11.5,11.4C15,29,15.5,29,16,29c2.6,0,5-0.7,7.2-2.2c0.5-0.3,0.6-0.9,0.3-1.4c-0.3-0.5-0.9-0.6-1.4-0.3 c-2.2,1.4-4.7,2.1-7.3,1.8c-5.1-0.5-9.1-4.6-9.7-9.7C4.7,14.1,5.7,11,7.8,8.7c2.3-2.5,5.6-3.9,9-3.6c3.2,0.2,6,1.9,7.8,4.6 c1.9,2.9,2.4,6.3,1.3,9.6l0,0.1c-0.3,1-1.3,1.7-2.4,1.7c-1.4,0-2.5-1.1-2.5-2.5V17v-2v-4c0-0.6-0.4-1-1-1s-1,0.4-1,1v0 c-0.8-0.6-1.9-1-3-1c-2.8,0-5,2.2-5,5v2c0,2.8,2.2,5,5,5c1.4,0,2.6-0.6,3.5-1.4c0.7,1.4,2.2,2.4,4,2.4c1.9,0,3.6-1.2,4.3-3.1l0-0.1 C29.1,16,28.5,11.9,26.2,8.5z M19,17c0,1.7-1.3,3-3,3s-3-1.3-3-3v-2c0-1.7,1.3-3,3-3s3,1.3,3,3V17z"/> </g>
</svg>